<svg xmlns="http://www.w3.org/2000/svg" width="1500" height="1050" viewBox="0 0 1500 1050" role="img" aria-labelledby="title desc">
  <title id="title">macOS host to C++ renderer engine flow</title>
  <desc id="desc">Diagram showing how the SwiftUI macOS host creates a CAMetalLayer, passes it through the HostRuntime C++ facade into the C++ runtime and dynamic engine API, then the renderer uses Metal to draw each frame.</desc>
  <defs>
    <style>
      .bg { fill: #f7f5ef; }
      .lane { fill: #ffffff; stroke: #2f3437; stroke-width: 2; }
      .lane-title { font: 700 28px -apple-system, BlinkMacSystemFont, "Segoe UI", sans-serif; fill: #1f2528; }
      .lane-subtitle { font: 500 15px -apple-system, BlinkMacSystemFont, "Segoe UI", sans-serif; fill: #596066; }
      .box { stroke: #24292d; stroke-width: 2; rx: 8; ry: 8; }
      .host { fill: #d9ecff; }
      .bridge { fill: #e9e1ff; }
      .runtime { fill: #dff4e5; }
      .engine { fill: #ffe2cb; }
      .gpu { fill: #f9d6dc; }
      .text { font: 600 18px -apple-system, BlinkMacSystemFont, "Segoe UI", sans-serif; fill: #182026; }
      .small { font: 500 14px -apple-system, BlinkMacSystemFont, "Segoe UI", sans-serif; fill: #344047; }
      .tiny { font: 500 12px -apple-system, BlinkMacSystemFont, "Segoe UI", sans-serif; fill: #46525a; }
      .call { fill: none; stroke: #1e2529; stroke-width: 3; marker-end: url(#arrow); }
      .call-soft { fill: none; stroke: #54616a; stroke-width: 2.5; marker-end: url(#arrow-soft); stroke-dasharray: 8 7; }
      .return { fill: none; stroke: #8b4d10; stroke-width: 2.5; marker-end: url(#arrow-warm); stroke-dasharray: 6 7; }
      .label { font: 700 13px -apple-system, BlinkMacSystemFont, "Segoe UI", sans-serif; fill: #1e2529; }
      .note { fill: #fff8dc; stroke: #6f5a1f; stroke-width: 1.5; rx: 8; ry: 8; }
      .badge { fill: #24292d; }
      .badge-text { font: 700 13px -apple-system, BlinkMacSystemFont, "Segoe UI", sans-serif; fill: #fff; }
    </style>
    <marker id="arrow" markerWidth="13" markerHeight="13" refX="10" refY="6.5" orient="auto">
      <path d="M1,1 L11,6.5 L1,12 Z" fill="#1e2529"/>
    </marker>
    <marker id="arrow-soft" markerWidth="13" markerHeight="13" refX="10" refY="6.5" orient="auto">
      <path d="M1,1 L11,6.5 L1,12 Z" fill="#54616a"/>
    </marker>
    <marker id="arrow-warm" markerWidth="13" markerHeight="13" refX="10" refY="6.5" orient="auto">
      <path d="M1,1 L11,6.5 L1,12 Z" fill="#8b4d10"/>
    </marker>
  </defs>

  <rect class="bg" x="0" y="0" width="1500" height="1050"/>

  <text x="60" y="62" class="lane-title">macOS host to C++ renderer engine</text>
  <text x="60" y="90" class="lane-subtitle">Concrete path in this repo: SwiftUI/AppKit host, Swift/C++ facade, hot-loaded engine dylib, metal-cpp renderer</text>

  <rect class="lane" x="45" y="125" width="1410" height="190" rx="16"/>
  <text x="70" y="165" class="lane-title">1. macOS host creates the drawable surface</text>
  <text x="70" y="190" class="lane-subtitle">host/macos/Host/Sources</text>

  <rect class="box host" x="85" y="220" width="220" height="62"/>
  <text class="text" x="110" y="247">HostApp</text>
  <text class="small" x="110" y="269">SwiftUI WindowGroup</text>

  <rect class="box host" x="355" y="220" width="245" height="62"/>
  <text class="text" x="380" y="247">ContentView</text>
  <text class="small" x="380" y="269">embeds MetalView</text>

  <rect class="box host" x="650" y="220" width="265" height="62"/>
  <text class="text" x="675" y="247">MetalNSView</text>
  <text class="small" x="675" y="269">makeBackingLayer()</text>

  <rect class="box gpu" x="965" y="220" width="265" height="62"/>
  <text class="text" x="990" y="247">CAMetalLayer</text>
  <text class="small" x="990" y="269">drawableSize + scale</text>

  <rect class="box host" x="1265" y="220" width="140" height="62"/>
  <text class="text" x="1288" y="247">Coordinator</text>
  <text class="small" x="1288" y="269">CADisplayLink</text>

  <path class="call" d="M305 251 H350"/>
  <path class="call" d="M600 251 H645"/>
  <path class="call" d="M915 251 H960"/>
  <path class="call-soft" d="M1265 251 H1235"/>

  <rect class="lane" x="45" y="350" width="1410" height="210" rx="16"/>
  <text x="70" y="390" class="lane-title">2. Swift calls the C++ host runtime facade</text>
  <text x="70" y="415" class="lane-subtitle">The only native surface data passed across is a pointer-sized layer handle plus pixel dimensions.</text>

  <rect class="box host" x="85" y="455" width="260" height="70"/>
  <text class="text" x="110" y="483">RuntimeManager.attach</text>
  <text class="small" x="110" y="506">wraps CAMetalLayer pointer</text>

  <rect class="box bridge" x="415" y="455" width="270" height="70"/>
  <text class="text" x="440" y="483">HostRuntime.cpp</text>
  <text class="small" x="440" y="506">Swift/C++ facade</text>

  <rect class="box runtime" x="755" y="455" width="295" height="70"/>
  <text class="text" x="780" y="483">Runtime::attach_surface</text>
  <text class="small" x="780" y="506">stores SurfaceDescriptor</text>

  <rect class="note" x="1115" y="442" width="285" height="96"/>
  <text class="small" x="1140" y="472">SurfaceDescriptor</text>
  <text class="tiny" x="1140" y="496">metal_layer: void* to CAMetalLayer</text>
  <text class="tiny" x="1140" y="516">width / height: drawable pixels</text>

  <path class="call" d="M345 490 H410"/>
  <path class="call" d="M685 490 H750"/>
  <path class="call-soft" d="M1050 490 H1110"/>
  <text class="label" x="368" y="476">attachSurface</text>
  <text class="label" x="705" y="476">SurfaceDescriptor</text>

  <rect class="lane" x="45" y="595" width="1410" height="205" rx="16"/>
  <text x="70" y="635" class="lane-title">3. Runtime binds the hot-loaded engine ABI</text>
  <text x="70" y="660" class="lane-subtitle">host/runtime.h loads the dylib, resolves engine_get_api, then calls function pointers in EngineAPI.</text>

  <rect class="box runtime" x="85" y="700" width="250" height="64"/>
  <text class="text" x="110" y="727">DynamicLibrary</text>
  <text class="small" x="110" y="749">open / reload / sym</text>

  <rect class="box runtime" x="390" y="700" width="255" height="64"/>
  <text class="text" x="415" y="727">engine_get_api()</text>
  <text class="small" x="415" y="749">extern &quot;C&quot; symbol</text>

  <rect class="box engine" x="700" y="700" width="295" height="64"/>
  <text class="text" x="725" y="727">EngineAPI table</text>
  <text class="small" x="725" y="749">init / resize / update / shutdown</text>

  <rect class="box engine" x="1050" y="700" width="300" height="64"/>
  <text class="text" x="1075" y="727">engine_init_impl</text>
  <text class="small" x="1075" y="749">creates Renderer from surface</text>

  <path class="call" d="M335 732 H385"/>
  <path class="return" d="M645 732 H695"/>
  <path class="call" d="M995 732 H1045"/>
  <text class="label" x="354" y="718">dlsym</text>
  <text class="label" x="660" y="718">returns table</text>
  <text class="label" x="1012" y="718">api.init</text>

  <rect class="lane" x="45" y="835" width="1410" height="165" rx="16"/>
  <text x="70" y="875" class="lane-title">4. Per frame, the renderer records Metal commands into the layer drawable</text>
  <text x="70" y="900" class="lane-subtitle">CADisplayLink calls tick(dt); the engine advances time and Renderer::render_frame submits GPU work.</text>

  <rect class="box host" x="85" y="930" width="215" height="46"/>
  <text class="text" x="110" y="959">displayLinkFired</text>

  <rect class="box runtime" x="350" y="930" width="185" height="46"/>
  <text class="text" x="375" y="959">HostRuntime::tick</text>

  <rect class="box runtime" x="585" y="930" width="200" height="46"/>
  <text class="text" x="610" y="959">reload_if_changed</text>

  <rect class="box engine" x="835" y="930" width="220" height="46"/>
  <text class="text" x="860" y="959">engine_update_impl</text>

  <rect class="box engine" x="1105" y="930" width="245" height="46"/>
  <text class="text" x="1130" y="959">Renderer::render_frame</text>

  <path class="call" d="M300 953 H345"/>
  <path class="call" d="M535 953 H580"/>
  <path class="call" d="M785 953 H830"/>
  <path class="call" d="M1055 953 H1100"/>

  <g transform="translate(1085,585)">
    <rect class="box gpu" x="0" y="0" width="305" height="80"/>
    <text class="text" x="24" y="30">Renderer::init</text>
    <text class="small" x="24" y="54">retain layer, create device/queue</text>
    <path class="call-soft" d="M-70 145 C-10 125, 30 100, 70 85"/>
  </g>

  <g transform="translate(1168,807)">
    <rect class="box gpu" x="0" y="0" width="222" height="72"/>
    <text class="small" x="22" y="28">nextDrawable()</text>
    <text class="small" x="22" y="50">encode, present, commit</text>
    <path class="call-soft" d="M55 122 C80 95, 92 85, 105 74"/>
  </g>

  <g transform="translate(70,1008)">
    <rect class="badge" x="0" y="-24" width="20" height="20" rx="4"/>
    <text class="badge-text" x="6" y="-9">S</text>
    <text class="tiny" x="30" y="-9">Swift/AppKit host</text>
    <rect class="badge" x="190" y="-24" width="20" height="20" rx="4" fill="#7c5dcc"/>
    <text class="badge-text" x="196" y="-9">B</text>
    <text class="tiny" x="220" y="-9">Swift/C++ facade</text>
    <rect class="badge" x="450" y="-24" width="20" height="20" rx="4" fill="#d57b2a"/>
    <text class="badge-text" x="456" y="-9">E</text>
    <text class="tiny" x="480" y="-9">Engine dylib and renderer</text>
  </g>
</svg>
